<?xml version="1.0" encoding="UTF-8" standalone="no"?>
<!-- Created with Inkscape (http://www.inkscape.org/) -->
<svg
   xmlns:svg="http://www.w3.org/2000/svg"
   xmlns="http://www.w3.org/2000/svg"
   version="1.0"
   width="220"
   height="220"
   id="svg2">
  <defs
     id="defs4" />
  <g
     id="layer1">
    <g
       transform="translate(9.703885,3.5)"
       id="g2994">
      <path
         d="M 60,45 A 5,5 0 1 1 50,45 A 5,5 0 1 1 60,45 z"
         transform="matrix(0.6,0,0,0.6,-17.411543,174)"
         id="path3511"
         style="opacity:1;fill:#000000;fill-opacity:1;stroke:none;stroke-width:1.5;stroke-miterlimit:4;stroke-dasharray:none;stroke-opacity:1" />
      <path
         d="M 60,45 A 5,5 0 1 1 50,45 A 5,5 0 1 1 60,45 z"
         transform="matrix(0.6,0,0,0.6,13.765372,174)"
         id="path3513"
         style="opacity:1;fill:#000000;fill-opacity:1;stroke:none;stroke-width:1.5;stroke-miterlimit:4;stroke-dasharray:none;stroke-opacity:1" />
      <path
         d="M 60,45 A 5,5 0 1 1 50,45 A 5,5 0 1 1 60,45 z"
         transform="matrix(0.6,0,0,0.6,76.119201,174)"
         id="path3521"
         style="opacity:1;fill:#000000;fill-opacity:1;stroke:none;stroke-width:1.5;stroke-miterlimit:4;stroke-dasharray:none;stroke-opacity:1" />
      <path
         d="M 60,45 A 5,5 0 1 1 50,45 A 5,5 0 1 1 60,45 z"
         transform="matrix(0.6,0,0,0.6,138.47303,174)"
         id="path3529"
         style="opacity:1;fill:#000000;fill-opacity:1;stroke:none;stroke-width:1.5;stroke-miterlimit:4;stroke-dasharray:none;stroke-opacity:1" />
      <path
         d="M 60,45 A 5,5 0 1 1 50,45 A 5,5 0 1 1 60,45 z"
         transform="matrix(0.6,0,0,0.6,200.82686,174)"
         id="path3537"
         style="opacity:1;fill:#000000;fill-opacity:1;stroke:none;stroke-width:1.5;stroke-miterlimit:4;stroke-dasharray:none;stroke-opacity:1" />
      <path
         d="M 60,45 A 5,5 0 1 1 50,45 A 5,5 0 1 1 60,45 z"
         transform="matrix(0.6,0,0,0.6,232.00377,174)"
         id="path3545"
         style="opacity:1;fill:#000000;fill-opacity:1;stroke:none;stroke-width:1.5;stroke-miterlimit:4;stroke-dasharray:none;stroke-opacity:1" />
      <path
         d="M 60,45 A 5,5 0 1 1 50,45 A 5,5 0 1 1 60,45 z"
         transform="matrix(0.6,0,0,0.6,44.942286,174)"
         id="path2635"
         style="opacity:1;fill:#000000;fill-opacity:1;stroke:none;stroke-width:1.5;stroke-miterlimit:4;stroke-dasharray:none;stroke-opacity:1" />
      <path
         d="M 60,45 A 5,5 0 1 1 50,45 A 5,5 0 1 1 60,45 z"
         transform="matrix(0.6,0,0,0.6,107.29612,174)"
         id="path2637"
         style="opacity:1;fill:#000000;fill-opacity:1;stroke:none;stroke-width:1.5;stroke-miterlimit:4;stroke-dasharray:none;stroke-opacity:1" />
      <path
         d="M 60,45 A 5,5 0 1 1 50,45 A 5,5 0 1 1 60,45 z"
         transform="matrix(0.6,0,0,0.6,169.64994,174)"
         id="path2639"
         style="opacity:1;fill:#000000;fill-opacity:1;stroke:none;stroke-width:1.5;stroke-miterlimit:4;stroke-dasharray:none;stroke-opacity:1" />
      <path
         d="M 60,45 A 5,5 0 1 1 50,45 A 5,5 0 1 1 60,45 z"
         transform="matrix(0.6,0,0,0.6,-1.8230855,147)"
         id="path2649"
         style="opacity:1;fill:#000000;fill-opacity:1;stroke:none;stroke-width:1.5;stroke-miterlimit:4;stroke-dasharray:none;stroke-opacity:1" />
      <path
         d="M 60,45 A 5,5 0 1 1 50,45 A 5,5 0 1 1 60,45 z"
         transform="matrix(0.6,0,0,0.6,29.353829,147)"
         id="path2651"
         style="opacity:1;fill:#000000;fill-opacity:1;stroke:none;stroke-width:1.5;stroke-miterlimit:4;stroke-dasharray:none;stroke-opacity:1" />
      <path
         d="M 60,45 A 5,5 0 1 1 50,45 A 5,5 0 1 1 60,45 z"
         transform="matrix(0.6,0,0,0.6,60.530744,147)"
         id="path2653"
         style="opacity:1;fill:#000000;fill-opacity:1;stroke:none;stroke-width:1.5;stroke-miterlimit:4;stroke-dasharray:none;stroke-opacity:1" />
      <path
         d="M 60,45 A 5,5 0 1 1 50,45 A 5,5 0 1 1 60,45 z"
         transform="matrix(0.6,0,0,0.6,91.707658,147)"
         id="path2655"
         style="opacity:1;fill:#000000;fill-opacity:1;stroke:none;stroke-width:1.5;stroke-miterlimit:4;stroke-dasharray:none;stroke-opacity:1" />
      <path
         d="M 60,45 A 5,5 0 1 1 50,45 A 5,5 0 1 1 60,45 z"
         transform="matrix(0.6,0,0,0.6,122.88457,147)"
         id="path2657"
         style="opacity:1;fill:#000000;fill-opacity:1;stroke:none;stroke-width:1.5;stroke-miterlimit:4;stroke-dasharray:none;stroke-opacity:1" />
      <path
         d="M 60,45 A 5,5 0 1 1 50,45 A 5,5 0 1 1 60,45 z"
         transform="matrix(0.6,0,0,0.6,154.06149,147)"
         id="path2659"
         style="opacity:1;fill:#000000;fill-opacity:1;stroke:none;stroke-width:1.5;stroke-miterlimit:4;stroke-dasharray:none;stroke-opacity:1" />
      <path
         d="M 60,45 A 5,5 0 1 1 50,45 A 5,5 0 1 1 60,45 z"
         transform="matrix(0.6,0,0,0.6,185.2384,147)"
         id="path2661"
         style="opacity:1;fill:#000000;fill-opacity:1;stroke:none;stroke-width:1.5;stroke-miterlimit:4;stroke-dasharray:none;stroke-opacity:1" />
      <path
         d="M 60,45 A 5,5 0 1 1 50,45 A 5,5 0 1 1 60,45 z"
         transform="matrix(0.6,0,0,0.6,216.41532,147)"
         id="path2663"
         style="opacity:1;fill:#000000;fill-opacity:1;stroke:none;stroke-width:1.5;stroke-miterlimit:4;stroke-dasharray:none;stroke-opacity:1" />
      <path
         d="M 60,45 A 5,5 0 1 1 50,45 A 5,5 0 1 1 60,45 z"
         transform="matrix(0.6,0,0,0.6,247.59223,147)"
         id="path2665"
         style="opacity:1;fill:#000000;fill-opacity:1;stroke:none;stroke-width:1.5;stroke-miterlimit:4;stroke-dasharray:none;stroke-opacity:1" />
      <path
         d="M 60,45 A 5,5 0 1 1 50,45 A 5,5 0 1 1 60,45 z"
         transform="matrix(0.6,0,0,0.6,-17.411543,120)"
         id="path2667"
         style="opacity:1;fill:#000000;fill-opacity:1;stroke:none;stroke-width:1.5;stroke-miterlimit:4;stroke-dasharray:none;stroke-opacity:1" />
      <path
         d="M 60,45 A 5,5 0 1 1 50,45 A 5,5 0 1 1 60,45 z"
         transform="matrix(0.6,0,0,0.6,13.765372,120)"
         id="path2669"
         style="opacity:1;fill:#000000;fill-opacity:1;stroke:none;stroke-width:1.5;stroke-miterlimit:4;stroke-dasharray:none;stroke-opacity:1" />
      <path
         d="M 60,45 A 5,5 0 1 1 50,45 A 5,5 0 1 1 60,45 z"
         transform="matrix(0.6,0,0,0.6,76.119201,120)"
         id="path2671"
         style="opacity:1;fill:#000000;fill-opacity:1;stroke:none;stroke-width:1.5;stroke-miterlimit:4;stroke-dasharray:none;stroke-opacity:1" />
      <path
         d="M 60,45 A 5,5 0 1 1 50,45 A 5,5 0 1 1 60,45 z"
         transform="matrix(0.6,0,0,0.6,138.47303,120)"
         id="path2673"
         style="opacity:1;fill:#000000;fill-opacity:1;stroke:none;stroke-width:1.5;stroke-miterlimit:4;stroke-dasharray:none;stroke-opacity:1" />
      <path
         d="M 60,45 A 5,5 0 1 1 50,45 A 5,5 0 1 1 60,45 z"
         transform="matrix(0.6,0,0,0.6,200.82686,120)"
         id="path2675"
         style="opacity:1;fill:#000000;fill-opacity:1;stroke:none;stroke-width:1.5;stroke-miterlimit:4;stroke-dasharray:none;stroke-opacity:1" />
      <path
         d="M 60,45 A 5,5 0 1 1 50,45 A 5,5 0 1 1 60,45 z"
         transform="matrix(0.6,0,0,0.6,232.00377,120)"
         id="path2677"
         style="opacity:1;fill:#000000;fill-opacity:1;stroke:none;stroke-width:1.5;stroke-miterlimit:4;stroke-dasharray:none;stroke-opacity:1" />
      <path
         d="M 60,45 A 5,5 0 1 1 50,45 A 5,5 0 1 1 60,45 z"
         transform="matrix(0.6,0,0,0.6,44.942286,120)"
         id="path2679"
         style="opacity:1;fill:#000000;fill-opacity:1;stroke:none;stroke-width:1.5;stroke-miterlimit:4;stroke-dasharray:none;stroke-opacity:1" />
      <path
         d="M 60,45 A 5,5 0 1 1 50,45 A 5,5 0 1 1 60,45 z"
         transform="matrix(0.6,0,0,0.6,107.29612,120)"
         id="path2681"
         style="opacity:1;fill:#000000;fill-opacity:1;stroke:none;stroke-width:1.5;stroke-miterlimit:4;stroke-dasharray:none;stroke-opacity:1" />
      <path
         d="M 60,45 A 5,5 0 1 1 50,45 A 5,5 0 1 1 60,45 z"
         transform="matrix(0.6,0,0,0.6,169.64994,120)"
         id="path2683"
         style="opacity:1;fill:#000000;fill-opacity:1;stroke:none;stroke-width:1.5;stroke-miterlimit:4;stroke-dasharray:none;stroke-opacity:1" />
      <path
         d="M 60,45 A 5,5 0 1 1 50,45 A 5,5 0 1 1 60,45 z"
         transform="matrix(0.6,0,0,0.6,-1.8230855,93)"
         id="path2685"
         style="opacity:1;fill:#000000;fill-opacity:1;stroke:none;stroke-width:1.5;stroke-miterlimit:4;stroke-dasharray:none;stroke-opacity:1" />
      <path
         d="M 60,45 A 5,5 0 1 1 50,45 A 5,5 0 1 1 60,45 z"
         transform="matrix(0.6,0,0,0.6,29.353829,93)"
         id="path2687"
         style="opacity:1;fill:#000000;fill-opacity:1;stroke:none;stroke-width:1.5;stroke-miterlimit:4;stroke-dasharray:none;stroke-opacity:1" />
      <path
         d="M 60,45 A 5,5 0 1 1 50,45 A 5,5 0 1 1 60,45 z"
         transform="matrix(0.6,0,0,0.6,60.530744,93)"
         id="path2689"
         style="opacity:1;fill:#000000;fill-opacity:1;stroke:none;stroke-width:1.5;stroke-miterlimit:4;stroke-dasharray:none;stroke-opacity:1" />
      <path
         d="M 60,45 A 5,5 0 1 1 50,45 A 5,5 0 1 1 60,45 z"
         transform="matrix(0.6,0,0,0.6,91.707658,93)"
         id="path2691"
         style="opacity:1;fill:#000000;fill-opacity:1;stroke:none;stroke-width:1.5;stroke-miterlimit:4;stroke-dasharray:none;stroke-opacity:1" />
      <path
         d="M 60,45 A 5,5 0 1 1 50,45 A 5,5 0 1 1 60,45 z"
         transform="matrix(0.6,0,0,0.6,122.88457,93)"
         id="path2693"
         style="opacity:1;fill:#000000;fill-opacity:1;stroke:none;stroke-width:1.5;stroke-miterlimit:4;stroke-dasharray:none;stroke-opacity:1" />
      <path
         d="M 60,45 A 5,5 0 1 1 50,45 A 5,5 0 1 1 60,45 z"
         transform="matrix(0.6,0,0,0.6,154.06149,93)"
         id="path2695"
         style="opacity:1;fill:#000000;fill-opacity:1;stroke:none;stroke-width:1.5;stroke-miterlimit:4;stroke-dasharray:none;stroke-opacity:1" />
      <path
         d="M 60,45 A 5,5 0 1 1 50,45 A 5,5 0 1 1 60,45 z"
         transform="matrix(0.6,0,0,0.6,185.2384,93)"
         id="path2697"
         style="opacity:1;fill:#000000;fill-opacity:1;stroke:none;stroke-width:1.5;stroke-miterlimit:4;stroke-dasharray:none;stroke-opacity:1" />
      <path
         d="M 60,45 A 5,5 0 1 1 50,45 A 5,5 0 1 1 60,45 z"
         transform="matrix(0.6,0,0,0.6,216.41532,93)"
         id="path2699"
         style="opacity:1;fill:#000000;fill-opacity:1;stroke:none;stroke-width:1.5;stroke-miterlimit:4;stroke-dasharray:none;stroke-opacity:1" />
      <path
         d="M 60,45 A 5,5 0 1 1 50,45 A 5,5 0 1 1 60,45 z"
         transform="matrix(0.6,0,0,0.6,247.59223,93)"
         id="path2701"
         style="opacity:1;fill:#000000;fill-opacity:1;stroke:none;stroke-width:1.5;stroke-miterlimit:4;stroke-dasharray:none;stroke-opacity:1" />
      <path
         d="M 60,45 A 5,5 0 1 1 50,45 A 5,5 0 1 1 60,45 z"
         transform="matrix(0.6,0,0,0.6,-17.411548,66)"
         id="path2703"
         style="opacity:1;fill:#000000;fill-opacity:1;stroke:none;stroke-width:1.5;stroke-miterlimit:4;stroke-dasharray:none;stroke-opacity:1" />
      <path
         d="M 60,45 A 5,5 0 1 1 50,45 A 5,5 0 1 1 60,45 z"
         transform="matrix(0.6,0,0,0.6,13.765367,66)"
         id="path2705"
         style="opacity:1;fill:#000000;fill-opacity:1;stroke:none;stroke-width:1.5;stroke-miterlimit:4;stroke-dasharray:none;stroke-opacity:1" />
      <path
         d="M 60,45 A 5,5 0 1 1 50,45 A 5,5 0 1 1 60,45 z"
         transform="matrix(0.6,0,0,0.6,76.119196,66)"
         id="path2707"
         style="opacity:1;fill:#000000;fill-opacity:1;stroke:none;stroke-width:1.5;stroke-miterlimit:4;stroke-dasharray:none;stroke-opacity:1" />
      <path
         d="M 60,45 A 5,5 0 1 1 50,45 A 5,5 0 1 1 60,45 z"
         transform="matrix(0.6,0,0,0.6,138.47303,66)"
         id="path2709"
         style="opacity:1;fill:#000000;fill-opacity:1;stroke:none;stroke-width:1.5;stroke-miterlimit:4;stroke-dasharray:none;stroke-opacity:1" />
      <path
         d="M 60,45 A 5,5 0 1 1 50,45 A 5,5 0 1 1 60,45 z"
         transform="matrix(0.6,0,0,0.6,200.82686,66)"
         id="path2711"
         style="opacity:1;fill:#000000;fill-opacity:1;stroke:none;stroke-width:1.5;stroke-miterlimit:4;stroke-dasharray:none;stroke-opacity:1" />
      <path
         d="M 60,45 A 5,5 0 1 1 50,45 A 5,5 0 1 1 60,45 z"
         transform="matrix(0.6,0,0,0.6,232.00377,66)"
         id="path2713"
         style="opacity:1;fill:#000000;fill-opacity:1;stroke:none;stroke-width:1.5;stroke-miterlimit:4;stroke-dasharray:none;stroke-opacity:1" />
      <path
         d="M 60,45 A 5,5 0 1 1 50,45 A 5,5 0 1 1 60,45 z"
         transform="matrix(0.6,0,0,0.6,44.942281,66)"
         id="path2715"
         style="opacity:1;fill:#000000;fill-opacity:1;stroke:none;stroke-width:1.5;stroke-miterlimit:4;stroke-dasharray:none;stroke-opacity:1" />
      <path
         d="M 60,45 A 5,5 0 1 1 50,45 A 5,5 0 1 1 60,45 z"
         transform="matrix(0.6,0,0,0.6,107.29612,66)"
         id="path2717"
         style="opacity:1;fill:#000000;fill-opacity:1;stroke:none;stroke-width:1.5;stroke-miterlimit:4;stroke-dasharray:none;stroke-opacity:1" />
      <path
         d="M 60,45 A 5,5 0 1 1 50,45 A 5,5 0 1 1 60,45 z"
         transform="matrix(0.6,0,0,0.6,169.64994,66)"
         id="path2719"
         style="opacity:1;fill:#000000;fill-opacity:1;stroke:none;stroke-width:1.5;stroke-miterlimit:4;stroke-dasharray:none;stroke-opacity:1" />
      <path
         d="M 60,45 A 5,5 0 1 1 50,45 A 5,5 0 1 1 60,45 z"
         transform="matrix(0.6,0,0,0.6,-1.8230901,39)"
         id="path2721"
         style="opacity:1;fill:#000000;fill-opacity:1;stroke:none;stroke-width:1.5;stroke-miterlimit:4;stroke-dasharray:none;stroke-opacity:1" />
      <path
         d="M 60,45 A 5,5 0 1 1 50,45 A 5,5 0 1 1 60,45 z"
         transform="matrix(0.6,0,0,0.6,29.353824,39)"
         id="path2723"
         style="opacity:1;fill:#000000;fill-opacity:1;stroke:none;stroke-width:1.5;stroke-miterlimit:4;stroke-dasharray:none;stroke-opacity:1" />
      <path
         d="M 60,45 A 5,5 0 1 1 50,45 A 5,5 0 1 1 60,45 z"
         transform="matrix(0.6,0,0,0.6,60.530739,39)"
         id="path2725"
         style="opacity:1;fill:#000000;fill-opacity:1;stroke:none;stroke-width:1.5;stroke-miterlimit:4;stroke-dasharray:none;stroke-opacity:1" />
      <path
         d="M 60,45 A 5,5 0 1 1 50,45 A 5,5 0 1 1 60,45 z"
         transform="matrix(0.6,0,0,0.6,91.707653,39)"
         id="path2727"
         style="opacity:1;fill:#000000;fill-opacity:1;stroke:none;stroke-width:1.5;stroke-miterlimit:4;stroke-dasharray:none;stroke-opacity:1" />
      <path
         d="M 60,45 A 5,5 0 1 1 50,45 A 5,5 0 1 1 60,45 z"
         transform="matrix(0.6,0,0,0.6,122.88457,39)"
         id="path2729"
         style="opacity:1;fill:#000000;fill-opacity:1;stroke:none;stroke-width:1.5;stroke-miterlimit:4;stroke-dasharray:none;stroke-opacity:1" />
      <path
         d="M 60,45 A 5,5 0 1 1 50,45 A 5,5 0 1 1 60,45 z"
         transform="matrix(0.6,0,0,0.6,154.06149,39)"
         id="path2731"
         style="opacity:1;fill:#000000;fill-opacity:1;stroke:none;stroke-width:1.5;stroke-miterlimit:4;stroke-dasharray:none;stroke-opacity:1" />
      <path
         d="M 60,45 A 5,5 0 1 1 50,45 A 5,5 0 1 1 60,45 z"
         transform="matrix(0.6,0,0,0.6,185.2384,39)"
         id="path2733"
         style="opacity:1;fill:#000000;fill-opacity:1;stroke:none;stroke-width:1.5;stroke-miterlimit:4;stroke-dasharray:none;stroke-opacity:1" />
      <path
         d="M 60,45 A 5,5 0 1 1 50,45 A 5,5 0 1 1 60,45 z"
         transform="matrix(0.6,0,0,0.6,216.41532,39)"
         id="path2735"
         style="opacity:1;fill:#000000;fill-opacity:1;stroke:none;stroke-width:1.5;stroke-miterlimit:4;stroke-dasharray:none;stroke-opacity:1" />
      <path
         d="M 60,45 A 5,5 0 1 1 50,45 A 5,5 0 1 1 60,45 z"
         transform="matrix(0.6,0,0,0.6,247.59223,39)"
         id="path2737"
         style="opacity:1;fill:#000000;fill-opacity:1;stroke:none;stroke-width:1.5;stroke-miterlimit:4;stroke-dasharray:none;stroke-opacity:1" />
      <path
         d="M 60,45 A 5,5 0 1 1 50,45 A 5,5 0 1 1 60,45 z"
         transform="matrix(0.6,0,0,0.6,-17.411553,12)"
         id="path2739"
         style="opacity:1;fill:#000000;fill-opacity:1;stroke:none;stroke-width:1.5;stroke-miterlimit:4;stroke-dasharray:none;stroke-opacity:1" />
      <path
         d="M 60,45 A 5,5 0 1 1 50,45 A 5,5 0 1 1 60,45 z"
         transform="matrix(0.6,0,0,0.6,13.765362,12)"
         id="path2741"
         style="opacity:1;fill:#000000;fill-opacity:1;stroke:none;stroke-width:1.5;stroke-miterlimit:4;stroke-dasharray:none;stroke-opacity:1" />
      <path
         d="M 60,45 A 5,5 0 1 1 50,45 A 5,5 0 1 1 60,45 z"
         transform="matrix(0.6,0,0,0.6,76.119191,12)"
         id="path2743"
         style="opacity:1;fill:#000000;fill-opacity:1;stroke:none;stroke-width:1.5;stroke-miterlimit:4;stroke-dasharray:none;stroke-opacity:1" />
      <path
         d="M 60,45 A 5,5 0 1 1 50,45 A 5,5 0 1 1 60,45 z"
         transform="matrix(0.6,0,0,0.6,138.47303,12)"
         id="path2745"
         style="opacity:1;fill:#000000;fill-opacity:1;stroke:none;stroke-width:1.5;stroke-miterlimit:4;stroke-dasharray:none;stroke-opacity:1" />
      <path
         d="M 60,45 A 5,5 0 1 1 50,45 A 5,5 0 1 1 60,45 z"
         transform="matrix(0.6,0,0,0.6,200.82686,12)"
         id="path2747"
         style="opacity:1;fill:#000000;fill-opacity:1;stroke:none;stroke-width:1.5;stroke-miterlimit:4;stroke-dasharray:none;stroke-opacity:1" />
      <path
         d="M 60,45 A 5,5 0 1 1 50,45 A 5,5 0 1 1 60,45 z"
         transform="matrix(0.6,0,0,0.6,232.00377,12)"
         id="path2749"
         style="opacity:1;fill:#000000;fill-opacity:1;stroke:none;stroke-width:1.5;stroke-miterlimit:4;stroke-dasharray:none;stroke-opacity:1" />
      <path
         d="M 60,45 A 5,5 0 1 1 50,45 A 5,5 0 1 1 60,45 z"
         transform="matrix(0.6,0,0,0.6,44.942276,12)"
         id="path2751"
         style="opacity:1;fill:#000000;fill-opacity:1;stroke:none;stroke-width:1.5;stroke-miterlimit:4;stroke-dasharray:none;stroke-opacity:1" />
      <path
         d="M 60,45 A 5,5 0 1 1 50,45 A 5,5 0 1 1 60,45 z"
         transform="matrix(0.6,0,0,0.6,107.29612,12)"
         id="path2753"
         style="opacity:1;fill:#000000;fill-opacity:1;stroke:none;stroke-width:1.5;stroke-miterlimit:4;stroke-dasharray:none;stroke-opacity:1" />
      <path
         d="M 60,45 A 5,5 0 1 1 50,45 A 5,5 0 1 1 60,45 z"
         transform="matrix(0.6,0,0,0.6,169.64994,12)"
         id="path2755"
         style="opacity:1;fill:#000000;fill-opacity:1;stroke:none;stroke-width:1.5;stroke-miterlimit:4;stroke-dasharray:none;stroke-opacity:1" />
      <path
         d="M 60,45 A 5,5 0 1 1 50,45 A 5,5 0 1 1 60,45 z"
         transform="matrix(0.6,0,0,0.6,-1.8230947,-15)"
         id="path2757"
         style="opacity:1;fill:#000000;fill-opacity:1;stroke:none;stroke-width:1.5;stroke-miterlimit:4;stroke-dasharray:none;stroke-opacity:1" />
      <path
         d="M 60,45 A 5,5 0 1 1 50,45 A 5,5 0 1 1 60,45 z"
         transform="matrix(0.6,0,0,0.6,29.353819,-15)"
         id="path2759"
         style="opacity:1;fill:#000000;fill-opacity:1;stroke:none;stroke-width:1.5;stroke-miterlimit:4;stroke-dasharray:none;stroke-opacity:1" />
      <path
         d="M 60,45 A 5,5 0 1 1 50,45 A 5,5 0 1 1 60,45 z"
         transform="matrix(0.6,0,0,0.6,60.530734,-15)"
         id="path2761"
         style="opacity:1;fill:#000000;fill-opacity:1;stroke:none;stroke-width:1.5;stroke-miterlimit:4;stroke-dasharray:none;stroke-opacity:1" />
      <path
         d="M 60,45 A 5,5 0 1 1 50,45 A 5,5 0 1 1 60,45 z"
         transform="matrix(0.6,0,0,0.6,91.707648,-15)"
         id="path2763"
         style="opacity:1;fill:#000000;fill-opacity:1;stroke:none;stroke-width:1.5;stroke-miterlimit:4;stroke-dasharray:none;stroke-opacity:1" />
      <path
         d="M 60,45 A 5,5 0 1 1 50,45 A 5,5 0 1 1 60,45 z"
         transform="matrix(0.6,0,0,0.6,122.88457,-15)"
         id="path2765"
         style="opacity:1;fill:#000000;fill-opacity:1;stroke:none;stroke-width:1.5;stroke-miterlimit:4;stroke-dasharray:none;stroke-opacity:1" />
      <path
         d="M 60,45 A 5,5 0 1 1 50,45 A 5,5 0 1 1 60,45 z"
         transform="matrix(0.6,0,0,0.6,154.06149,-15)"
         id="path2767"
         style="opacity:1;fill:#000000;fill-opacity:1;stroke:none;stroke-width:1.5;stroke-miterlimit:4;stroke-dasharray:none;stroke-opacity:1" />
      <path
         d="M 60,45 A 5,5 0 1 1 50,45 A 5,5 0 1 1 60,45 z"
         transform="matrix(0.6,0,0,0.6,185.2384,-15)"
         id="path2769"
         style="opacity:1;fill:#000000;fill-opacity:1;stroke:none;stroke-width:1.5;stroke-miterlimit:4;stroke-dasharray:none;stroke-opacity:1" />
      <path
         d="M 60,45 A 5,5 0 1 1 50,45 A 5,5 0 1 1 60,45 z"
         transform="matrix(0.6,0,0,0.6,216.41532,-15)"
         id="path2771"
         style="opacity:1;fill:#000000;fill-opacity:1;stroke:none;stroke-width:1.5;stroke-miterlimit:4;stroke-dasharray:none;stroke-opacity:1" />
      <path
         d="M 60,45 A 5,5 0 1 1 50,45 A 5,5 0 1 1 60,45 z"
         transform="matrix(0.6,0,0,0.6,247.59223,-15)"
         id="path2773"
         style="opacity:1;fill:#000000;fill-opacity:1;stroke:none;stroke-width:1.5;stroke-miterlimit:4;stroke-dasharray:none;stroke-opacity:1" />
      <path
         d="M 60,45 A 5,5 0 1 1 50,45 A 5,5 0 1 1 60,45 z"
         transform="matrix(0.6,0,0,0.6,-33,147)"
         id="path2986"
         style="opacity:1;fill:#000000;fill-opacity:1;stroke:none;stroke-width:1.5;stroke-miterlimit:4;stroke-dasharray:none;stroke-opacity:1" />
      <path
         d="M 60,45 A 5,5 0 1 1 50,45 A 5,5 0 1 1 60,45 z"
         transform="matrix(0.6,0,0,0.6,-33,93)"
         id="path2988"
         style="opacity:1;fill:#000000;fill-opacity:1;stroke:none;stroke-width:1.5;stroke-miterlimit:4;stroke-dasharray:none;stroke-opacity:1" />
      <path
         d="M 60,45 A 5,5 0 1 1 50,45 A 5,5 0 1 1 60,45 z"
         transform="matrix(0.6,0,0,0.6,-33,39)"
         id="path2990"
         style="opacity:1;fill:#000000;fill-opacity:1;stroke:none;stroke-width:1.5;stroke-miterlimit:4;stroke-dasharray:none;stroke-opacity:1" />
      <path
         d="M 60,45 A 5,5 0 1 1 50,45 A 5,5 0 1 1 60,45 z"
         transform="matrix(0.6,0,0,0.6,-33,-15)"
         id="path2992"
         style="opacity:1;fill:#000000;fill-opacity:1;stroke:none;stroke-width:1.5;stroke-miterlimit:4;stroke-dasharray:none;stroke-opacity:1" />
    </g>
  </g>
</svg>
